<svg width="1035" height="832" viewBox="0 0 1035 832" fill="none" xmlns="http://www.w3.org/2000/svg">
<g id="contact 1" clip-path="url(#clip0)">
<path id="background" opacity="0.4" d="M601.31 95.07C534.96 93.16 471.77 75.32 411.47 55.8C351.17 36.28 291.31 14.69 226.55 4.35001C184.9 -2.29999 137.27 -3.23999 103.71 15.35C71.41 33.24 60.98 64.13 55.37 92.8C51.14 114.36 48.66 137.06 60.23 157.24C68.23 171.24 82.52 183.03 92.38 196.45C126.68 243.16 102.44 300.75 65.26 346.35C47.82 367.74 27.59 388.15 14.13 410.92C0.66999 433.69 -5.53001 459.8 6.21999 483C17.89 506 45.7 523.31 75.83 535.48C137.02 560.18 209.13 567.25 279.44 571.26C435.08 580.12 591.56 576.26 747.62 572.44C805.37 571.02 863.38 569.58 920.2 562.14C951.75 558.01 984.32 551.46 1007.2 535.64C1036.28 515.56 1043.48 481.55 1024 456.37C991.32 414.13 901 403.64 878.11 358.31C865.53 333.36 878.45 305.56 896.72 282.42C935.92 232.78 1001.63 189.23 1005.09 132.49C1007.46 93.49 975.88 54.49 927.04 36.05C875.85 16.72 804.86 19.15 767.04 51.15C728.23 84.09 659.89 96.8 601.31 95.07Z" fill="url(#paint0_linear)"/>
<g id="man">
<path id="Vector" opacity="0.1" d="M817.04 801.09C864.724 801.09 903.38 797.146 903.38 792.28C903.38 787.414 864.724 783.47 817.04 783.47C769.356 783.47 730.7 787.414 730.7 792.28C730.7 797.146 769.356 801.09 817.04 801.09Z" fill="#3489BB"/>
<path id="Vector_2" d="M712.81 390.41C712.81 390.41 718.28 361.71 735.89 361.56L748.76 388.04L740.18 393.96C740.18 393.96 721.54 394.55 712.81 390.41Z" fill="#65617D"/>
<path id="Vector_3" opacity="0.1" d="M748.76 388.04L740.18 393.96C740.18 393.96 727.06 394.38 717.68 392.07C716.007 391.673 714.377 391.118 712.81 390.41C712.81 390.41 712.81 390.25 712.91 389.95C712.91 389.95 712.91 389.88 712.91 389.84C713.718 386.238 714.832 382.712 716.24 379.3C716.79 378.01 717.4 376.68 718.06 375.35C720.64 370.35 724.26 365.53 729.22 363.12C731.054 362.22 733.05 361.7 735.09 361.59H735.61H735.87L736.15 362.18L740.5 371.12L748.76 388.04Z" fill="black"/>
<path id="Vector_4" d="M894.92 507.28C894.92 507.28 913.42 505.51 915.04 506.84C916.66 508.17 927.17 514.97 933.39 510.68C939.61 506.39 935.46 491.45 935.46 490.86C935.46 490.27 934.87 469.11 934.87 469.11L923.77 454.17L909.87 427.99L881.47 425.17L882.21 466.75L882.06 488.05L894.92 507.28Z" fill="#65617D"/>
<path id="Vector_5" opacity="0.1" d="M894.92 507.28C894.92 507.28 913.42 505.51 915.04 506.84C916.66 508.17 927.17 514.97 933.39 510.68C939.61 506.39 935.46 491.45 935.46 490.86C935.46 490.27 934.87 469.11 934.87 469.11L923.77 454.17L909.87 427.99L881.47 425.17L882.21 466.75L882.06 488.05L894.92 507.28Z" fill="black"/>
<path id="Vector_6" d="M732.19 360.8C732.19 360.8 730.71 378.85 719.47 379.14C719.47 379.14 716.28 377.22 711.99 374.02C702.11 366.63 686.44 352.42 690.77 339.2C696.98 320.27 727.16 355.2 727.16 355.2L729.47 357.8L732.19 360.8Z" fill="#FBBEBE"/>
<path id="Vector_7" opacity="0.1" d="M732.19 360.8C732.19 360.8 730.71 378.85 719.47 379.14C719.47 379.14 716.28 377.22 711.99 374.02L711.04 372.79C712.948 373.785 715.05 374.351 717.2 374.45C718.891 374.517 720.562 374.068 721.991 373.163C723.42 372.257 724.539 370.938 725.2 369.38C726.382 367.059 727.421 364.668 728.31 362.22C728.857 360.794 729.246 359.311 729.47 357.8L732.19 360.8Z" fill="black"/>
<path id="Vector_8" d="M727.31 393.52L724.78 390.26L716.26 379.26L711.92 373.65C713.826 374.65 715.929 375.217 718.08 375.31C720.91 375.38 724.08 374.31 726.08 370.25C727.26 367.925 728.299 365.531 729.19 363.08C730.59 359.08 730.57 357.08 730.07 356.35C729.57 355.62 733.21 359.03 734.96 360.69L735.02 360.75L735.84 361.52L736.14 362.12L740.43 370.69C740.43 370.69 740.43 370.81 740.43 371.05C740.85 373.8 742.3 391.07 727.31 393.52Z" fill="#E7EFFD"/>
<path id="Vector_9" d="M815.93 774.31C815.93 774.31 803.5 782.45 797.29 781.31C791.08 780.17 784.71 783.39 784.71 783.39C780.428 788.066 775.029 791.579 769.02 793.6C759.02 797 744.92 795.66 736.93 793C733.15 791.74 732.84 790.12 734.66 788.11C736.66 785.87 741.32 783.18 746.66 779.98C756.87 773.92 767.81 761.98 767.81 761.98C767.81 761.98 767.96 758.98 769.74 757.7C770.836 756.756 771.84 755.712 772.74 754.58C774.33 752.7 775.82 750.74 775.82 750.74L812.38 751.8C812.38 751.8 813 754.43 813.49 757.12C813.907 758.864 814.079 760.658 814 762.45C813.906 763.101 813.947 763.764 814.118 764.398C814.29 765.033 814.59 765.626 815 766.14L815.66 772.14L815.93 774.31Z" fill="#65617D"/>
<path id="Vector_10" d="M892.41 784.52C891.97 786.29 891.41 789.46 891.2 790.95L891.07 791.77C891.07 791.77 888.07 798.28 871.7 800.65C855.33 803.02 855.28 795.17 855.28 795.17C855.28 795.17 855.34 794.33 855.44 793.06C855.73 789.6 856.32 782.97 856.76 781.56C857.34 779.64 856.31 771.2 856.31 771.2L856.14 762.39L856.01 756.27L883.24 753.45C883.408 755.486 883.702 757.51 884.12 759.51C884.287 760.621 884.693 761.682 885.31 762.62C886.79 764.25 887.67 771.5 887.67 771.5C887.67 771.5 893 782.15 892.41 784.52Z" fill="#65617D"/>
<path id="Vector_11" opacity="0.1" d="M812.38 751.8C812.38 751.8 813 754.43 813.49 757.12C809.54 757.85 792.28 760.84 787.97 758.75C783.08 756.38 772.58 755.05 772.58 755.05L772.75 754.45C774.34 752.57 775.83 750.61 775.83 750.61L812.38 751.8Z" fill="black"/>
<path id="Vector_12" opacity="0.1" d="M884.12 759.51C877.22 758.34 862.12 761.17 856.12 762.39L855.99 756.27L883.22 753.45C883.394 755.487 883.695 757.511 884.12 759.51Z" fill="black"/>
<path id="Vector_13" d="M899.47 535.24L898.88 556.1C898.88 556.1 899.62 587.91 897.4 592.94C895.18 597.97 895.18 618.24 895.18 618.24C895.18 618.24 896.66 627.85 895.03 629.92C893.4 631.99 894.59 639.68 895.77 643.68C896.95 647.68 895.92 657.59 895.92 657.59L895.62 713.51C895.62 713.51 894 728 891.92 730.08C891.323 730.694 890.9 731.455 890.692 732.286C890.485 733.117 890.502 733.988 890.74 734.81C890.74 734.81 888.97 743.09 889.41 744.58C889.85 746.07 890.74 749.46 887.34 751.08C883.94 752.7 884.82 757.89 884.82 757.89C876.69 755.96 853.61 761.15 853.61 761.15C851.116 756.009 848.942 750.719 847.1 745.31C846.702 744.215 846.543 743.048 846.632 741.887C846.722 740.725 847.058 739.596 847.618 738.575C848.178 737.554 848.95 736.664 849.881 735.965C850.813 735.265 851.883 734.773 853.02 734.52C856.12 734.07 850.8 728.6 850.8 728.6C850.8 728.6 851.39 727.86 849.91 722.54C848.43 717.22 850.2 703.54 850.65 700.04C851.1 696.54 853.31 679.33 853.31 679.33C853.31 679.33 852.13 657.59 853.02 656.7C853.91 655.81 856.86 647.23 855.39 644.42C853.92 641.61 851.53 623.12 851.53 622.08C851.53 621.04 849.62 597.08 849.62 597.08C849.62 597.08 847.84 580.36 848.29 576.81C848.74 573.26 847.1 560.1 847.1 560.1C847.1 549.1 840.74 537.31 840.74 537.31L840.58 537.74L826.87 573.86C826.87 573.86 824.65 584.8 822.73 591.01C821.516 595.233 820.551 599.524 819.84 603.86L819.71 604.65C819.71 604.98 819.61 605.26 819.58 605.48L819.49 606.08C819.49 606.08 820.49 613.92 818.89 616.44C817.29 618.96 815.49 626.5 815.49 628.57C815.49 630.64 815.64 638.63 815.64 638.63C815.64 638.63 816.23 654.46 814.64 656.24C813.05 658.02 813.89 659.49 813.89 659.49C813.89 659.49 816.55 671.49 815.37 674.58C814.19 677.67 815.08 684.93 815.08 684.93C815.08 684.93 812.71 707.87 812.42 709.05C812.13 710.23 810.49 719.41 812.27 720.15C814.05 720.89 817.44 725.32 817.44 725.32C817.44 725.32 818.19 744.71 815.52 746.18C812.85 747.65 814.33 755.18 814.33 755.18C814.33 755.18 792.89 759.32 788.01 756.95C783.13 754.58 772.62 753.25 772.62 753.25L774.09 748.39C774 748.56 773.02 750.14 772.32 744.08C771.59 737.72 777.8 740.82 777.8 740.82C777.8 740.82 782.68 742.01 774.8 734.32C766.92 726.63 770.8 718.78 771.25 718.78C771.7 718.78 772.74 707.4 772.74 707.4C772.74 707.4 774.07 700.59 773.03 695.26C771.99 689.93 771.11 673.36 771.11 673.36C771.11 673.36 771.85 660.79 770.52 656.21C769.19 651.63 771.4 643.33 771.85 641.41C772.3 639.49 770.47 621.93 770.47 621.93C770.47 621.93 771.95 613.65 771.06 607.59C770.17 601.53 771.95 579.18 771.95 579.18L774.61 553.44C774.61 553.44 776.53 545.44 776.24 542.19C775.95 538.94 778.47 527.55 778.47 527.55C778.319 525.124 778.723 522.696 779.65 520.45C781.13 517.45 781.72 507.73 781.72 507.73L795.93 475.18L802.93 446.48L896.86 445.59C896.86 445.59 897.21 448.08 897.78 452.59C898.35 457.1 899.15 463.8 900.04 472.07C900.86 479.58 901.76 488.41 902.63 498.24C905.47 529.62 899.47 535.24 899.47 535.24Z" fill="#3F3D56"/>
<path id="Vector_14" d="M890.78 276.2L868.88 299.58C868.88 299.58 840.78 288.33 843.74 284.49C844.88 283 844.74 278.3 844.04 273.12C843.04 264.92 840.78 255.49 840.78 255.49C840.78 255.49 889.89 247.49 885.78 255.78C884.27 258.78 884.53 262.34 885.47 265.61C886.66 269.402 888.453 272.978 890.78 276.2Z" fill="#FBBEBE"/>
<path id="Vector_15" opacity="0.1" d="M885.75 255.8C884.24 258.8 883.52 259.12 884.46 262.39C878.04 269.26 869.87 276.8 859.71 276.8C854.273 276.808 848.908 275.552 844.04 273.13C843.04 264.93 840.78 255.5 840.78 255.5C840.78 255.5 889.89 247.5 885.75 255.8Z" fill="black"/>
<path id="Vector_16" d="M894.93 240.69C894.774 249.927 890.996 258.733 884.409 265.21C877.821 271.687 868.953 275.317 859.715 275.317C850.477 275.317 841.609 271.687 835.021 265.21C828.434 258.733 824.656 249.927 824.5 240.69C824.5 240.52 824.5 240.35 824.5 240.19C824.566 230.852 828.339 221.922 834.99 215.366C838.282 212.12 842.182 209.554 846.467 207.815C850.751 206.075 855.336 205.197 859.96 205.23C864.584 205.263 869.156 206.206 873.415 208.006C877.675 209.806 881.538 212.427 884.784 215.72C888.03 219.012 890.596 222.912 892.335 227.197C894.075 231.481 894.953 236.066 894.92 240.69H894.93Z" fill="#FBBEBE"/>
<path id="Vector_17" opacity="0.1" d="M900.02 472.98C895.36 472.98 879.83 473.15 862.47 473.42H862.26L856.53 473.52H856.35C835.77 473.85 815.48 469.83 807.35 470.59C790.05 472.21 813.57 454.59 813.57 454.59C826.468 457.724 839.735 459.07 853 458.59L858 458.33C873.72 457.44 889.53 455.96 897.79 453.48C898.34 458.06 899.13 464.71 900.02 472.98Z" fill="black"/>
<path id="Vector_18" d="M900.02 472.09C895.36 472.09 879.83 472.26 862.47 472.53H862.26L856.53 472.63H856.35C835.77 472.96 815.48 468.94 807.35 469.7C790.05 471.33 813.57 453.7 813.57 453.7C826.468 456.834 839.735 458.18 853 457.7L858 457.44C873.72 456.55 889.53 455.07 897.79 452.6C898.34 457.18 899.13 463.8 900.02 472.09Z" fill="#5F5D7E"/>
<path id="Vector_19" opacity="0.1" d="M850.25 285.96L823.03 298.69L802.03 461.12C802.03 461.12 814.45 455.5 821.56 459.05C828.67 462.6 850.56 459.35 850.56 459.35C850.56 459.35 866.56 458.46 868.91 460.24C871.26 462.02 899.07 452.8 899.07 452.8C899.07 452.8 904.07 441.56 900.25 439.8C896.43 438.04 901.47 420.59 901.47 420.59L899.07 303.42L894.33 288.33L881.61 280.64L868.61 290.99L862.4 291.88L850.25 285.96Z" fill="black"/>
<path id="Vector_20" d="M850.25 284.19L823.03 296.91L802.03 459.35C802.03 459.35 814.45 453.73 821.56 457.28C828.67 460.83 850.56 457.57 850.56 457.57C850.56 457.57 866.56 456.69 868.91 458.46C871.26 460.23 899.09 451.06 899.09 451.06C899.09 451.06 904.09 439.82 900.27 438.06C896.45 436.3 901.47 418.8 901.47 418.8L899.07 301.64L894.33 286.56L881.61 278.86L868.61 289.22L862.4 290.11L850.25 284.19Z" fill="#E7EFFD"/>
<path id="Vector_21" opacity="0.1" d="M849.8 291.73C849.8 291.73 857.64 301.05 857.5 302.98C857.36 304.91 857.05 309.49 857.05 309.49L851.13 321.49C851.13 321.49 847.88 336.43 847.88 339.54C847.88 342.65 842.7 369.54 842.7 369.54L836.47 410.97L828.63 465.27L836.63 479.02L846.09 471.02L858.67 374.26L861.33 355.18C861.33 355.18 864.14 320.86 864.14 317.31C864.14 313.76 862.52 304.44 862.52 304.44C862.52 304.44 864.44 295.56 872.43 293.44C880.42 291.32 871.84 292.99 871.84 292.99L867.25 289.3L863.25 290.92C863.25 290.92 852.17 287.59 849.8 291.73Z" fill="black"/>
<path id="Vector_22" d="M848.91 290.85C848.91 290.85 856.76 300.17 856.61 302.09C856.46 304.01 856.16 308.6 856.16 308.6L850.25 320.6C850.25 320.6 846.99 335.54 846.99 338.65C846.99 341.76 841.81 368.65 841.81 368.65L835.6 410.07L827.76 464.37L835.76 478.13L845.23 470.13L857.8 373.38L860.47 354.31C860.47 354.31 863.28 319.99 863.28 316.44C863.28 312.89 861.66 303.57 861.66 303.57C861.66 303.57 863.58 294.69 871.57 292.62C879.56 290.55 870.98 292.18 870.98 292.18L866.39 288.48L862.39 290.11C862.39 290.11 851.28 286.7 848.91 290.85Z" fill="#2C5364"/>
<path id="Vector_23" opacity="0.1" d="M843.74 275.31C843.74 275.31 842.55 276.2 842.26 282.12C841.97 288.04 837.82 301.35 837.82 301.35C837.82 301.35 853.21 290.7 860.9 291.88L843.74 275.31Z" fill="black"/>
<path id="Vector_24" d="M843.74 273.54C843.74 273.54 842.55 274.42 842.26 280.34C841.97 286.26 837.82 299.57 837.82 299.57C837.82 299.57 853.21 288.92 860.9 290.11L843.74 273.54Z" fill="#E7EFFD"/>
<path id="Vector_25" opacity="0.1" d="M885.75 270.58L861.47 291.88C861.47 291.88 881.89 304.01 884.55 306.97C887.21 309.93 889.87 277.97 889.87 277.97L885.75 270.58Z" fill="black"/>
<path id="Vector_26" d="M886.64 268.8L862.38 290.11C862.38 290.11 882.79 302.24 885.47 305.2C888.15 308.16 890.79 276.2 890.79 276.2L886.64 268.8Z" fill="#E7EFFD"/>
<path id="Vector_27" opacity="0.1" d="M844.62 275.31C844.62 275.31 841.96 273.98 839.45 277.83C837.601 280.34 835.091 282.285 832.2 283.45C832.2 283.45 805.27 287.74 804.2 291.29L791.62 292.03C791.62 292.03 787.18 292.62 786.74 301.94C786.3 311.26 783.93 312.15 783.93 312.15C783.93 312.15 778.75 321.32 779.2 326.05C779.65 330.78 775.2 333.16 775.2 333.16L793.69 381.24C793.69 381.24 794.29 401.06 790.88 408.31C787.47 415.56 781.12 447.66 781.12 447.66C781.12 447.66 783.78 447.07 783.63 448.84C783.48 450.61 780.47 470 780.47 470C780.47 470 779.58 477.69 778.1 480.36C776.62 483.03 776.47 496.92 776.47 496.92L774.11 506.98C774.11 506.98 779.73 519.56 788.31 517.78C796.89 516 812.42 482.43 812.42 482.43L822.34 446.18L830.03 410.38L832.25 386.12L835.8 332.42L840.98 296.91C840.98 296.91 846.7 277.8 844.62 275.31Z" fill="black"/>
<path id="Vector_28" d="M843.74 273.54C843.74 273.54 841.07 272.21 838.56 276.05C836.715 278.563 834.204 280.51 831.31 281.67C831.31 281.67 804.39 285.96 803.31 289.51L790.73 290.25C790.73 290.25 786.3 290.85 785.85 300.17C785.4 309.49 783.04 310.37 783.04 310.37C783.04 310.37 777.86 319.55 778.31 324.28C778.76 329.01 774.31 331.38 774.31 331.38L792.81 379.46C792.81 379.46 793.4 399.28 790 406.53C786.6 413.78 780.23 445.89 780.23 445.89C780.23 445.89 782.89 445.29 782.75 447.07C782.61 448.85 779.49 468.22 779.49 468.22C779.49 468.22 778.6 475.92 777.12 478.58C775.64 481.24 775.5 495.15 775.5 495.15L773.13 505.21C773.13 505.21 778.75 517.78 787.33 516.01C795.91 514.24 811.47 480.65 811.47 480.65L821.38 444.41L829.07 408.61L831.29 384.34L834.84 330.64L840.02 295.14C840.02 295.14 845.81 276.05 843.74 273.54Z" fill="#65617D"/>
<path id="Vector_29" opacity="0.1" d="M748.76 388.04L740.18 393.96C740.18 393.96 727.06 394.38 717.68 392.07L712.91 389.95L711.91 389.53L712.91 389.84C717.86 391.31 721.73 391.28 724.76 390.26C736.9 386.17 735.56 366.12 735.09 361.59C735.09 361.13 735.01 360.84 734.99 360.73C734.988 360.71 734.988 360.69 734.99 360.67L735.06 360.79C735.228 361.063 735.415 361.324 735.62 361.57C735.79 361.76 735.97 361.96 736.16 362.15L740.45 370.72C740.45 370.72 740.45 370.84 740.45 371.08L748.76 388.04Z" fill="black"/>
<path id="Vector_30" d="M778.47 330.2L774.32 331.38L773.73 339.81C773.73 339.81 768.85 339.07 767.52 344.81C766.19 350.55 763.82 353.25 763.82 353.25C763.82 353.25 755.68 360.05 755.24 365.82L750.24 368.93C750.24 368.93 738.55 366.26 735.89 361.53C735.89 361.53 741.22 399.7 712.81 390.38C712.81 390.38 744.62 404.28 746.1 406.21C747.58 408.14 757.34 413.75 766.22 409.02C775.1 404.29 777.02 397.02 777.02 397.02C777.02 397.02 785.6 385.02 785.89 383.26C786.18 381.5 792.89 379.41 792.89 379.41L805.61 348.64L778.47 330.2Z" fill="#65617D"/>
<path id="Vector_31" opacity="0.1" d="M882.35 288.33L886.64 268.8C886.64 268.8 888.56 275.16 890.49 276.64L896.85 281.53C896.85 281.53 903.21 284.48 905.43 284.48C907.65 284.48 919.63 287.59 921.11 289.22C922.59 290.85 928.51 289.66 928.51 289.66C928.51 289.66 933.39 291.29 937.68 292.32C941.97 293.35 944.04 300.46 943.15 303.32C942.789 304.72 942.79 306.188 943.152 307.587C943.514 308.987 944.225 310.271 945.22 311.32C947 313.1 947.89 318.87 947.89 318.87C950.057 319.585 951.854 321.127 952.89 323.16C954.37 326.41 953.89 333.51 953.89 333.51L931.89 364.58C931.89 364.58 932.18 376.58 931.3 379.23C930.42 381.88 934.4 427.16 934.4 427.16L938.99 504.97C938.99 504.97 932.92 510.15 931.59 510.74C930.26 511.33 928.93 483.23 928.93 482.19C928.93 481.15 894.76 431 894.76 431C894.76 431 890.17 423.61 890.17 422C890.17 420.39 885.88 405.43 885.88 405.43L879.37 376.58L882.35 288.33Z" fill="black"/>
<path id="Vector_32" d="M955.78 331.8C955.78 332.8 955.78 333.5 955.78 333.5L933.78 364.5C933.78 364.5 934.08 376.5 933.2 379.14C932.68 380.69 933.81 396.61 934.86 409.69C935.6 419.12 936.3 427.07 936.3 427.07L938.25 460.07L940.88 504.87C940.88 504.87 934.82 510.05 933.49 510.64C932.16 511.23 930.83 483.13 930.83 482.09C930.83 481.05 896.65 430.91 896.65 430.91C896.65 430.91 892.06 423.5 892.06 421.91C892.06 420.32 887.77 405.34 887.77 405.34L881.27 376.49L884.22 288.32L886.64 268.8C886.64 268.8 890.34 275.17 892.26 276.64L898.62 281.52C898.62 281.52 904.98 284.52 907.2 284.52C909.42 284.52 921.41 287.62 922.89 289.25C924.37 290.88 930.28 289.69 930.28 289.69C930.28 289.69 935.16 291.32 939.45 292.35C943.74 293.38 945.82 300.49 944.93 303.35C944.567 304.749 944.567 306.218 944.929 307.618C945.291 309.018 946.004 310.302 947 311.35C948.77 313.12 949.66 318.89 949.66 318.89C951.826 319.612 953.622 321.156 954.66 323.19C955.72 325.34 955.82 329.45 955.78 331.8Z" fill="#65617D"/>
<path id="Vector_33" opacity="0.1" d="M774.95 725.94C775.68 725.94 806.75 727.12 806.16 732.15C805.57 737.18 774.95 725.94 774.95 725.94Z" fill="black"/>
<path id="Vector_34" opacity="0.1" d="M781.9 734.37C781.9 734.37 802.76 737.77 797.28 740.88C791.8 743.99 781.9 734.37 781.9 734.37Z" fill="black"/>
<path id="Vector_35" opacity="0.1" d="M859.47 722.68C859.47 722.68 894.09 725.68 888.91 729.49C883.73 733.3 871.45 733.92 870.91 734.07C870.37 734.22 859.47 722.68 859.47 722.68Z" fill="black"/>
<path id="Vector_36" opacity="0.1" d="M855.28 737.92C855.28 737.92 874.51 741.17 875.1 744.92C875.69 748.67 855.28 737.92 855.28 737.92Z" fill="black"/>
<path id="Vector_37" opacity="0.1" d="M865.93 648.86C865.93 648.86 883.53 653 884.57 655.86L865.93 648.86Z" fill="black"/>
<path id="Vector_38" opacity="0.1" d="M798.02 661.58C798.02 661.58 788.85 664.24 797.73 669.58C806.61 674.92 798.02 661.58 798.02 661.58Z" fill="black"/>
<path id="Vector_39" opacity="0.1" d="M838.71 519.41C839.71 519.41 855.87 514.09 861.49 516.41C865.512 517.921 869.764 518.729 874.06 518.8L838.71 519.41Z" fill="black"/>
<path id="Vector_40" opacity="0.1" d="M840.78 536.27L840.62 537.74L826.87 573.86C826.87 573.86 824.65 584.8 822.73 591.01C821.516 595.233 820.551 599.524 819.84 603.86L832.05 528.14L840.78 536.27Z" fill="black"/>
<path id="Vector_41" d="M862.26 472.53L856.53 472.63H856.35L852.99 457.72L857.99 457.45L862.26 472.53Z" fill="#3F3D56"/>
<path id="Vector_42" d="M932.06 454.47L928.37 457.47L916.08 467.6C916.08 467.6 882.79 485.36 873.62 468.49C865.54 453.63 903.28 443.02 912.37 440.71C913.6 440.4 914.3 440.24 914.3 440.24L932.06 454.47Z" fill="#FBBEBE"/>
<path id="Vector_43" opacity="0.1" d="M789.89 309.04C789.89 309.04 796.4 312.04 797.89 316.14C799.38 320.24 789.89 309.04 789.89 309.04Z" fill="black"/>
<path id="Vector_44" opacity="0.1" d="M769.77 353.42C769.77 353.42 760.3 364.96 764.15 369.42C768 373.88 769.77 353.42 769.77 353.42Z" fill="black"/>
<path id="Vector_45" opacity="0.1" d="M939.01 315.55C939.01 315.55 930.13 316.44 929.84 324.13L939.01 315.55Z" fill="black"/>
<path id="Vector_46" opacity="0.1" d="M856.76 436.86C857.64 435.97 878.06 405.79 882.76 408.46L856.76 436.86Z" fill="black"/>
<path id="Vector_47" opacity="0.1" d="M894.93 240.69C894.939 246.49 893.506 252.201 890.76 257.31L890.5 257.26C888.27 256.79 887.11 254.19 885.4 252.57C884.351 251.57 883.015 250.925 881.58 250.724C880.145 250.523 878.683 250.777 877.4 251.45C876.107 252.227 875.055 253.348 874.363 254.689C873.67 256.029 873.365 257.536 873.48 259.04C872.35 254.3 872.71 249.27 871.61 244.52C870.51 239.77 867.2 234.97 862.66 234.89C860.66 234.89 858.43 235.6 857.01 234.14C856.16 233.26 856.01 231.87 855.35 230.79C852.11 225.55 842.24 228.2 838.21 230.89C834.18 233.58 829.51 237.89 824.5 240.19C824.566 230.852 828.339 221.922 834.99 215.366C838.282 212.12 842.182 209.554 846.467 207.815C850.751 206.075 855.336 205.197 859.96 205.23C864.584 205.263 869.156 206.206 873.415 208.006C877.675 209.806 881.538 212.427 884.784 215.72C888.03 219.012 890.596 222.912 892.335 227.197C894.075 231.481 894.953 236.066 894.92 240.69H894.93Z" fill="black"/>
<path id="Vector_48" d="M855.36 229.91C856 230.98 856.17 232.37 857.02 233.25C858.43 234.72 860.72 233.96 862.67 234C867.21 234.08 870.52 238.88 871.62 243.63C872.72 248.38 872.36 253.41 873.49 258.15C873.373 256.644 873.68 255.136 874.374 253.795C875.068 252.454 876.123 251.334 877.42 250.56C878.703 249.887 880.165 249.633 881.6 249.834C883.035 250.035 884.371 250.68 885.42 251.68C887.13 253.3 888.29 255.9 890.52 256.37C892.75 256.84 894.9 254.7 895.71 252.37C896.52 250.04 896.46 247.44 896.99 245C897.99 240.39 900.99 236.6 902.67 232.21C904.652 226.872 904.598 220.991 902.52 215.69C901.41 212.91 899.76 210.41 898.63 207.64C896.93 203.42 896.49 198.64 894.41 194.64C890.93 187.91 882.73 184.55 875.98 187.08C872.77 188.28 869.98 190.62 866.71 191.67C862.34 193.08 857.66 192.02 853.14 191.39C848.62 190.76 843.61 190.7 839.97 193.67C835.78 197.1 834.64 203.54 830.7 207.3C829.05 208.88 827 209.89 825.26 211.3C823.52 212.71 822.01 214.93 822.26 217.3C822.52 220.36 825.52 223.14 824.41 225.98C824.01 226.804 823.453 227.541 822.77 228.15C819.476 231.603 817.025 235.772 815.61 240.33C823.52 242.81 832.09 234.08 838.29 229.95C842.26 227.32 852.12 224.66 855.36 229.91Z" fill="#4E3939"/>
<path id="Vector_49" opacity="0.1" d="M932.06 454.47L928.37 457.47C925.12 452.07 911.79 441.27 911.79 441.27L912.37 440.71C913.6 440.4 914.3 440.24 914.3 440.24L932.06 454.47Z" fill="black"/>
<path id="Vector_50" d="M935.61 448.99C935.61 448.99 934.28 452.29 932.92 455.13C931.56 457.97 930.06 460.57 929.99 458.46C929.84 454.32 912.68 440.41 912.68 440.41L915.01 438.15L917.7 435.53L935.61 448.99Z" fill="#E7EFFD"/>
<path id="Vector_51" opacity="0.1" d="M936.2 427.09L938.15 460.09C933.55 452.94 920.93 434.62 912.82 435.21L932.47 412.6C933.288 411.689 934.044 410.724 934.73 409.71C935.47 419.14 936.2 427.09 936.2 427.09Z" fill="black"/>
<path id="Vector_52" opacity="0.1" d="M935.61 448.99C935.61 448.99 934.28 452.29 932.92 455.13C927.76 448.06 920.67 439.71 915.01 438.13L917.7 435.51L935.61 448.99Z" fill="black"/>
<path id="Vector_53" d="M950.4 329.31L955.73 333.45C955.73 333.45 964.6 333.6 965.49 341C966.38 348.4 974.49 351.8 974.49 351.8C974.49 351.8 980.55 357.86 980.55 360.67C980.55 363.48 985.14 368.51 985.14 368.96C985.14 369.41 989.58 378.43 988.98 380.05C988.38 381.67 993.72 388.78 992.09 391.44C990.753 393.83 989.568 396.302 988.54 398.84C988.54 398.84 981.59 412.16 978.04 414.67C974.49 417.18 958.21 438.34 958.21 438.34C958.21 438.34 940.76 458.46 940.76 464.67C940.76 464.67 923.76 436.27 913.68 437.01L933.36 414.37C933.36 414.37 936.76 410.68 936.91 408.46C937.06 406.24 946.38 396.03 950.82 395.59C950.82 395.59 951.55 389.52 949.63 389.37C947.71 389.22 946.08 384.49 946.08 384.49C946.08 384.49 933.08 369.11 932.91 359.34C932.74 349.57 950.4 329.31 950.4 329.31Z" fill="#65617D"/>
<path id="Vector_54" opacity="0.1" d="M958.24 343.36C958.24 343.36 945.82 352.54 948.48 355.49C951.14 358.44 958.24 343.36 958.24 343.36Z" fill="black"/>
<path id="Vector_55" opacity="0.1" d="M958.83 381.24C958.83 381.24 981.91 373.84 984.28 381.24H958.83Z" fill="black"/>
<path id="Vector_56" opacity="0.1" d="M815.93 774.31C815.93 774.31 803.5 782.45 797.29 781.31C791.08 780.17 784.71 783.39 784.71 783.39C780.428 788.066 775.029 791.579 769.02 793.6C759.02 797 744.92 795.66 736.93 793C733.15 791.74 732.84 790.12 734.66 788.11C743.35 789.84 762.76 793.29 767.99 790.78C774.79 787.52 784.56 780.42 784.56 780.42C784.56 780.42 797.29 778.65 799.06 778.65C800.32 778.65 810.15 774.59 815.7 772.27L815.93 774.31Z" fill="black"/>
<path id="Vector_57" opacity="0.1" d="M891.2 790.95L891.07 791.77C891.07 791.77 888.07 798.28 871.7 800.65C855.33 803.02 855.28 795.17 855.28 795.17C855.28 795.17 855.34 794.33 855.44 793.06C860.64 795.03 871.98 797.23 891.2 790.95Z" fill="black"/>
<path id="Vector_58" opacity="0.1" d="M796.03 341.59C796.03 341.59 796.03 375.32 793.14 378.65C790.25 381.98 796.03 341.59 796.03 341.59Z" fill="black"/>
<path id="Vector_59" opacity="0.1" d="M929.39 352.46L933.68 364.52C933.68 364.52 935.39 352.68 929.39 352.46Z" fill="black"/>
<g id="Group" opacity="0.1">
<path id="Vector_60" opacity="0.1" d="M824.79 223.15C825.87 220.37 823.03 217.65 822.66 214.67C822.284 215.511 822.122 216.432 822.19 217.35C822.38 219.59 824.03 221.68 824.47 223.76C824.594 223.566 824.701 223.362 824.79 223.15Z" fill="black"/>
<path id="Vector_61" opacity="0.1" d="M873.89 255.01C872.83 250.35 873.14 245.41 872.06 240.74C870.98 236.07 867.65 231.19 863.12 231.11C861.12 231.11 858.88 231.83 857.47 230.37C856.61 229.49 856.47 228.09 855.8 227.02C852.56 221.77 842.7 224.43 838.66 227.12C832.66 231.12 824.3 239.55 816.54 237.65C816.17 238.54 815.83 239.45 815.54 240.38C823.45 242.86 832.02 234.13 838.22 230C842.22 227.32 852.12 224.66 855.36 229.91C856 230.98 856.17 232.37 857.02 233.25C858.43 234.72 860.72 233.96 862.67 234C867.21 234.08 870.52 238.88 871.62 243.63C872.72 248.38 872.36 253.41 873.49 258.15C873.417 257.087 873.553 256.021 873.89 255.01Z" fill="black"/>
<path id="Vector_62" opacity="0.1" d="M896.13 249.47C895.33 251.81 893.22 253.97 890.94 253.47C888.66 252.97 887.55 250.4 885.85 248.77C884.795 247.781 883.459 247.144 882.026 246.945C880.594 246.746 879.135 246.996 877.85 247.66C876.616 248.395 875.602 249.447 874.911 250.705C874.22 251.964 873.878 253.385 873.92 254.82C874.519 253.014 875.761 251.49 877.41 250.54C878.693 249.867 880.155 249.613 881.59 249.814C883.025 250.015 884.361 250.66 885.41 251.66C887.12 253.28 888.28 255.88 890.51 256.35C892.74 256.82 894.89 254.68 895.7 252.35C896.121 250.966 896.393 249.542 896.51 248.1C896.413 248.564 896.286 249.022 896.13 249.47Z" fill="black"/>
<path id="Vector_63" opacity="0.1" d="M903.09 229.31C901.43 233.7 898.41 237.48 897.41 242.1C897.21 243.03 897.09 243.98 896.98 244.94C897.98 240.34 900.98 236.57 902.65 232.19C903.387 230.22 903.848 228.157 904.02 226.06C903.792 227.165 903.481 228.252 903.09 229.31Z" fill="black"/>
</g>
<path id="Vector_64" d="M689.3 336.43C689.499 336.43 689.66 336.269 689.66 336.07C689.66 335.871 689.499 335.71 689.3 335.71C689.101 335.71 688.94 335.871 688.94 336.07C688.94 336.269 689.101 336.43 689.3 336.43Z" fill="#E6E8EC"/>
</g>
<path id="mail-back" d="M499.55 214.39L238.04 384.05L408.7 691.85C409.497 693.289 410.584 694.548 411.892 695.546C413.201 696.544 414.701 697.261 416.3 697.65L570.93 735.37C573.58 736.011 576.369 735.724 578.833 734.558C581.297 733.391 583.286 731.416 584.47 728.96L661.17 569.61L745.23 457.24L545.75 221.24C540.199 214.676 532.446 210.359 523.942 209.099C515.439 207.838 506.767 209.719 499.55 214.39Z" fill="url(#paint1_radial)"/>
<g id="Paper">
<g id="layer" filter="url(#filter0_d)">
<path d="M716.39 345.9L706.9 411.9L698.2 472.34L695.77 489.2L694.38 525.2L687.04 716.11C686.97 717.855 686.518 719.564 685.716 721.115C684.914 722.666 683.781 724.022 682.397 725.088C681.013 726.153 679.412 726.902 677.707 727.28C676.002 727.659 674.235 727.659 672.53 727.28L593.75 709.69L393.86 665.08L280.3 639.72L282.9 464.95L283.66 413.76L284.55 353.88L285.46 292.29C304.24 291.4 335.14 293.41 372.03 297.12C454.63 305.41 567.23 322.18 640.85 333.73C685.93 340.8 716.39 345.9 716.39 345.9Z" fill="url(#paint2_linear)"/>
</g>
<g id="Contact me!" filter="url(#filter1_d)">
<path d="M350.433 352.932C345.458 352.26 341.3 353.391 337.961 356.324C334.645 359.24 332.598 363.578 331.82 369.338C331.02 375.264 331.785 380.034 334.113 383.649C336.466 387.246 340.212 389.392 345.353 390.086C348.512 390.513 352.191 390.431 356.391 389.842L355.768 394.457C352.471 395.21 348.52 395.275 343.916 394.654C337.248 393.753 332.37 391.034 329.283 386.497C326.216 381.962 325.186 375.968 326.192 368.515C326.822 363.849 328.242 359.878 330.45 356.603C332.679 353.33 335.563 350.966 339.102 349.509C342.662 348.056 346.672 347.63 351.131 348.233C355.88 348.874 359.912 350.301 363.229 352.515L360.389 356.736C357.179 354.662 353.861 353.394 350.433 352.932ZM396.311 383.786C395.563 389.319 393.586 393.456 390.378 396.198C387.172 398.918 383.113 399.947 378.199 399.283C375.164 398.873 372.566 397.797 370.405 396.055C368.243 394.312 366.702 392.023 365.782 389.187C364.862 386.351 364.643 383.147 365.125 379.575C365.872 374.042 367.837 369.924 371.019 367.221C374.204 364.498 378.253 363.468 383.167 364.132C387.915 364.773 391.47 366.861 393.83 370.396C396.212 373.934 397.038 378.398 396.311 383.786ZM370.452 380.294C369.866 384.63 370.287 388.05 371.715 390.556C373.142 393.061 375.539 394.541 378.904 394.995C382.269 395.45 384.971 394.669 387.009 392.652C389.071 390.618 390.396 387.423 390.984 383.067C391.567 378.752 391.131 375.361 389.677 372.894C388.247 370.41 385.829 368.937 382.422 368.477C379.057 368.023 376.368 368.785 374.356 370.762C372.344 372.74 371.043 375.917 370.452 380.294ZM426.284 405.146L429.249 383.189C429.623 380.422 429.272 378.273 428.197 376.74C427.121 375.207 425.242 374.26 422.558 373.897C419.007 373.418 416.276 374.027 414.365 375.724C412.454 377.421 411.2 380.478 410.603 384.896L408.198 402.704L403.058 402.009L407.641 368.067L411.822 368.632L412.031 373.39L412.279 373.424C413.557 371.894 415.208 370.803 417.23 370.151C419.255 369.478 421.434 369.299 423.767 369.614C427.855 370.166 430.797 371.573 432.594 373.834C434.394 376.074 435.001 379.362 434.415 383.697L431.425 405.84L426.284 405.146ZM453.469 405.128C454.377 405.25 455.263 405.307 456.126 405.297C456.992 405.267 457.683 405.213 458.198 405.135L457.667 409.068C457.073 409.262 456.218 409.367 455.101 409.384C454.003 409.425 453.02 409.387 452.153 409.27C445.587 408.383 442.772 404.482 443.706 397.565L446.432 377.374L441.57 376.717L441.905 374.24L447.055 372.759L450.202 365.805L453.175 366.207L452.113 374.073L461.961 375.403L461.421 379.398L451.573 378.068L448.876 398.043C448.6 400.087 448.873 401.721 449.695 402.947C450.518 404.172 451.776 404.899 453.469 405.128ZM485.311 413.117L484.941 408.148L484.694 408.114C482.714 410.012 480.825 411.229 479.029 411.764C477.257 412.282 475.111 412.37 472.592 412.03C469.227 411.576 466.701 410.352 465.015 408.358C463.35 406.367 462.734 403.772 463.166 400.572C464.091 393.717 470.058 390.865 481.066 392.015L486.851 392.607L487.135 390.501C487.495 387.838 487.182 385.799 486.196 384.383C485.233 382.95 483.492 382.063 480.973 381.723C478.145 381.341 474.828 381.776 471.022 383.028L469.973 378.881C471.768 378.199 473.692 377.733 475.744 377.485C477.816 377.239 479.853 377.251 481.856 377.522C485.903 378.068 488.775 379.371 490.473 381.429C492.192 383.49 492.784 386.503 492.248 390.467L489.12 413.631L485.311 413.117ZM474.187 407.925C477.387 408.357 480.014 407.819 482.068 406.309C484.142 404.802 485.393 402.47 485.82 399.311L486.234 396.245L481.063 395.767C476.956 395.36 473.917 395.601 471.947 396.491C470 397.364 468.867 398.987 468.546 401.361C468.295 403.219 468.661 404.709 469.645 405.83C470.65 406.954 472.164 407.652 474.187 407.925ZM513.223 417.517C508.31 416.853 504.704 414.832 502.406 411.452C500.132 408.055 499.369 403.59 500.116 398.057C500.883 392.379 502.838 388.176 505.981 385.447C509.145 382.721 513.257 381.699 518.315 382.382C519.946 382.603 521.553 382.998 523.137 383.57C524.72 384.141 525.945 384.727 526.81 385.327L524.641 389.48C523.566 388.873 522.378 388.334 521.075 387.863C519.775 387.373 518.608 387.057 517.576 386.918C510.68 385.987 506.639 389.919 505.451 398.714C504.888 402.884 505.292 406.197 506.663 408.653C508.055 411.111 510.402 412.564 513.706 413.01C516.534 413.392 519.517 413.174 522.655 412.358L522.04 416.91C519.61 417.78 516.671 417.983 513.223 417.517ZM541.42 417.005C542.329 417.127 543.215 417.184 544.078 417.174C544.944 417.144 545.634 417.09 546.149 417.013L545.618 420.946C545.025 421.139 544.17 421.244 543.053 421.261C541.954 421.302 540.971 421.264 540.104 421.147C533.539 420.26 530.723 416.359 531.657 409.442L534.384 389.251L529.522 388.594L529.856 386.117L535.007 384.636L538.153 377.682L541.126 378.084L540.064 385.95L549.912 387.28L549.373 391.275L539.525 389.945L536.827 409.92C536.551 411.964 536.825 413.598 537.647 414.824C538.47 416.049 539.728 416.776 541.42 417.005ZM612.129 430.243L615.111 408.162C615.476 405.457 615.171 403.356 614.196 401.858C613.224 400.339 611.52 399.415 609.083 399.086C605.883 398.654 603.395 399.253 601.619 400.885C599.843 402.516 598.697 405.241 598.182 409.061L595.622 428.014L590.481 427.319L593.463 405.238C593.828 402.534 593.524 400.432 592.549 398.934C591.577 397.416 589.862 396.49 587.405 396.159C584.184 395.724 581.689 396.375 579.92 398.112C578.174 399.831 577.005 402.89 576.411 407.287L574.006 425.094L568.865 424.4L573.449 390.458L577.629 391.023L577.838 395.781L578.086 395.815C579.28 394.294 580.816 393.188 582.697 392.496C584.598 391.806 586.643 391.609 588.831 391.905C594.137 392.621 597.346 395.01 598.459 399.07L598.706 399.104C599.958 397.465 601.613 396.259 603.673 395.486C605.732 394.713 607.99 394.492 610.447 394.824C614.287 395.343 617.023 396.721 618.655 398.96C620.31 401.18 620.845 404.458 620.26 408.794L617.27 430.937L612.129 430.243ZM642.147 434.927C637.13 434.249 633.372 432.186 630.874 428.738C628.396 425.292 627.524 420.854 628.257 415.424C628.996 409.953 630.925 405.788 634.044 402.93C637.183 400.074 641.024 398.953 645.566 399.566C649.819 400.141 652.995 401.999 655.093 405.142C657.194 408.263 657.935 412.116 657.316 416.699L656.877 419.951L633.496 416.794C633.061 420.792 633.654 423.952 635.274 426.273C636.916 428.597 639.471 429.993 642.939 430.462C646.593 430.955 650.31 430.679 654.088 429.634L653.469 434.217C651.546 434.756 649.747 435.081 648.071 435.191C646.413 435.324 644.439 435.236 642.147 434.927ZM644.923 403.863C642.197 403.495 639.899 404.088 638.029 405.644C636.178 407.202 634.897 409.53 634.184 412.63L651.929 415.026C652.367 411.784 651.979 409.209 650.765 407.301C649.554 405.371 647.607 404.225 644.923 403.863ZM669.837 425.327L666.585 424.888L669.434 391.879L675.845 392.745L669.837 425.327ZM663.206 433.798C663.585 430.99 665.014 429.753 667.491 430.088C668.689 430.249 669.559 430.735 670.101 431.544C670.664 432.356 670.854 433.443 670.67 434.805C670.491 436.127 670.021 437.114 669.26 437.769C668.502 438.402 667.535 438.639 666.358 438.48C665.284 438.335 664.44 437.895 663.824 437.161C663.211 436.405 663.005 435.284 663.206 433.798Z" fill="#96C3CE"/>
</g>
</g>
<path id="Vector_65" opacity="0.1" d="M747.89 458.57L747.15 459.57L697.91 525.4L697.02 526.59L663.83 570.96L598.23 707.27L596.39 711.08L587.13 730.31C585.946 732.77 583.953 734.748 581.485 735.915C579.016 737.082 576.223 737.366 573.57 736.72L418.94 698.98C417.341 698.592 415.84 697.876 414.531 696.878C413.223 695.879 412.136 694.62 411.34 693.18L396.47 666.41L393.8 661.59L286.47 467.93L285.55 466.28L240.69 385.38L246.11 381.86L287.2 355.21L288.15 354.59L374.68 298.45L380.14 294.91L502.19 215.72C509.407 211.04 518.083 209.153 526.592 210.412C535.1 211.671 542.858 215.99 548.41 222.56L639.41 330.26L643.41 335.06L709.46 413.2L709.82 413.63L743.03 452.91L747.21 457.86L747.89 458.57Z" fill="black"/>
<g id="mail-bottom">
<path id="Vector_66" opacity="0.1" d="M223.28 696.37L469.28 544.6C472.923 542.391 477.229 541.541 481.438 542.2C485.647 542.858 489.487 544.984 492.28 548.2L712.46 804.99C713.26 805.91 713.65 805.25 712.46 804.99L223.28 696.37C221.88 696.06 222.06 697.1 223.28 696.37Z" fill="black"/>
<g id="Vector_67" filter="url(#filter2_d)">
<path d="M237.85 384.05L220.02 689.38C219.855 692.206 220.701 694.998 222.407 697.258C224.113 699.517 226.567 701.095 229.33 701.71L702.85 806.86C704.511 807.224 706.229 807.228 707.892 806.873C709.554 806.517 711.121 805.811 712.487 804.8C713.854 803.79 714.988 802.499 715.815 801.014C716.642 799.529 717.141 797.884 717.28 796.19L745.03 457.24L482.28 586.11L237.85 384.05Z" fill="#DCDFED"/>
</g>
<path id="Vector_68" d="M225.04 696.12L468.5 549.05C472.349 546.725 476.895 545.834 481.337 546.533C485.779 547.231 489.831 549.476 492.78 552.87L710.97 803.8C711.331 804.218 711.552 804.738 711.601 805.288C711.65 805.838 711.524 806.39 711.242 806.864C710.96 807.339 710.535 807.713 710.029 807.933C709.523 808.153 708.96 808.208 708.42 808.09L225.83 700.93C225.316 700.819 224.848 700.556 224.486 700.175C224.123 699.794 223.884 699.313 223.799 698.794C223.713 698.275 223.786 697.743 224.008 697.266C224.229 696.789 224.589 696.39 225.04 696.12Z" fill="url(#paint3_linear)"/>
</g>
<g id="letter-s">
<g filter="url(#filter3_i)">
<path d="M499.644 677.968C498.629 682.364 496.725 685.915 493.933 688.621C491.256 691.254 487.324 693.351 482.136 694.912C478.617 696.071 474.692 696.642 470.36 696.628C466.029 696.613 461.758 696.12 457.549 695.148C453.246 694.155 448.238 691.521 442.525 687.247C438.46 683.944 435.427 680.436 433.427 676.723C431.521 673.031 430.988 669.361 431.83 665.713C432.413 663.188 433.396 661.493 434.777 660.63C436.181 659.673 438.145 659.486 440.67 660.069C441.98 660.371 443.207 661.246 444.351 662.692C445.516 664.045 446.121 665.268 446.164 666.362C446.588 670.499 448.2 673.975 450.999 676.788C453.819 679.509 457.661 681.43 462.525 682.553C468.138 683.848 473.052 683.899 477.269 682.705C481.579 681.532 484.134 679.215 484.933 675.754C485.71 672.387 484.343 668.919 480.832 665.35C477.321 661.78 473.532 658.985 469.467 656.962C463.682 653.854 458.674 650.579 454.444 647.14C450.047 643.563 447.043 639.717 445.432 635.601C443.82 631.485 443.468 627.463 444.375 623.534C445.217 619.886 447.333 616.483 450.722 613.324C454.133 610.072 457.763 608.003 461.613 607.119C463.7 606.615 467.107 606.367 471.834 606.375C476.677 606.31 480.127 606.515 482.185 606.99C484.898 607.617 487.815 608.635 490.938 610.046C494.061 611.456 496.511 613.007 498.288 614.698C501.864 617.987 504.418 620.793 505.951 623.117C507.483 625.441 507.925 628.007 507.278 630.813C506.889 632.497 505.889 633.842 504.277 634.849C502.758 635.878 500.456 636.036 497.369 635.324C496.621 635.151 495.948 634.651 495.351 633.823C494.754 632.996 494.045 631.798 493.225 630.229C492.182 627.919 491.034 626.275 489.782 625.296C488.487 624.505 486.548 623.515 483.965 622.328C481.475 621.162 479.201 620.342 477.144 619.867C474.899 619.348 472.452 619.276 469.804 619.65C467.156 620.024 464.785 620.905 462.691 622.294C460.712 623.611 459.464 625.391 458.946 627.636C458.514 629.507 458.978 631.339 460.338 633.13C461.813 634.85 463.669 636.412 465.907 637.815C468.454 639.585 471.267 641.269 474.347 642.867C478.347 645.17 481.574 647.195 484.028 648.944C486.596 650.621 489.007 652.556 491.259 654.751C495.216 658.522 497.889 662.095 499.278 665.469C500.688 668.751 500.81 672.917 499.644 677.968Z" fill="url(#paint4_angular)" fill-opacity="0.5" style="mix-blend-mode:lighten"/>
</g>
<path d="M493.933 688.621L493.237 687.902L493.232 687.908L493.933 688.621ZM482.136 694.912L481.848 693.955L481.835 693.958L481.823 693.962L482.136 694.912ZM470.36 696.628L470.357 697.628L470.36 696.628ZM442.525 687.247L441.895 688.023L441.91 688.035L441.926 688.047L442.525 687.247ZM433.427 676.723L432.539 677.181L432.543 677.189L432.547 677.197L433.427 676.723ZM434.777 660.63L435.307 661.478L435.324 661.467L435.341 661.456L434.777 660.63ZM444.351 662.692L443.567 663.312L443.58 663.329L443.593 663.345L444.351 662.692ZM446.164 666.362L445.165 666.401L445.166 666.433L445.169 666.464L446.164 666.362ZM450.999 676.788L450.29 677.494L450.297 677.501L450.304 677.508L450.999 676.788ZM477.269 682.705L477.006 681.74L476.996 681.743L477.269 682.705ZM480.832 665.35L481.545 664.648L480.832 665.35ZM469.467 656.962L468.994 657.843L469.008 657.851L469.022 657.858L469.467 656.962ZM454.444 647.14L453.812 647.915L453.813 647.915L454.444 647.14ZM445.432 635.601L444.501 635.966L445.432 635.601ZM450.722 613.324L451.404 614.056L451.412 614.048L450.722 613.324ZM461.613 607.119L461.837 608.093L461.847 608.091L461.613 607.119ZM471.834 606.375L471.833 607.375L471.84 607.375L471.847 607.374L471.834 606.375ZM490.938 610.046L491.35 609.134L490.938 610.046ZM498.288 614.698L497.599 615.422L497.605 615.428L497.611 615.434L498.288 614.698ZM504.277 634.849L503.747 634.001L503.731 634.011L503.716 634.021L504.277 634.849ZM495.351 633.823L494.54 634.409L494.54 634.409L495.351 633.823ZM493.225 630.229L492.313 630.641L492.325 630.667L492.339 630.692L493.225 630.229ZM489.782 625.296L490.398 624.508L490.353 624.473L490.304 624.443L489.782 625.296ZM483.965 622.328L483.541 623.233L483.547 623.236L483.965 622.328ZM469.804 619.65L469.944 620.64L469.944 620.64L469.804 619.65ZM462.691 622.294L462.139 621.461L462.137 621.461L462.691 622.294ZM460.338 633.13L459.541 633.735L459.559 633.759L459.579 633.781L460.338 633.13ZM465.907 637.815L466.477 636.994L466.458 636.98L466.438 636.968L465.907 637.815ZM474.347 642.867L474.845 642L474.827 641.989L474.807 641.979L474.347 642.867ZM484.028 648.944L483.447 649.758L483.464 649.77L483.481 649.781L484.028 648.944ZM491.259 654.751L490.561 655.467L490.569 655.475L491.259 654.751ZM499.278 665.469L498.353 665.85L498.356 665.857L498.359 665.864L499.278 665.469ZM498.669 677.743C497.691 681.983 495.87 685.352 493.237 687.902L494.629 689.339C497.581 686.479 499.567 682.746 500.618 678.193L498.669 677.743ZM493.232 687.908C490.711 690.388 486.945 692.421 481.848 693.955L482.424 695.87C487.703 694.281 491.802 692.12 494.635 689.334L493.232 687.908ZM481.823 693.962C478.422 695.082 474.606 695.642 470.364 695.628L470.357 697.628C474.778 697.643 478.812 697.059 482.449 695.862L481.823 693.962ZM470.364 695.628C466.106 695.613 461.91 695.129 457.774 694.174L457.324 696.123C461.606 697.111 465.951 697.613 470.357 697.628L470.364 695.628ZM457.774 694.174C453.664 693.225 448.786 690.682 443.124 686.446L441.926 688.047C447.69 692.36 452.828 695.085 457.324 696.123L457.774 694.174ZM443.156 686.47C439.169 683.231 436.232 679.821 434.308 676.248L432.547 677.197C434.623 681.05 437.751 684.656 441.895 688.023L443.156 686.47ZM434.316 676.264C432.505 672.758 432.022 669.33 432.805 665.938L430.856 665.488C429.955 669.393 430.536 673.304 432.539 677.181L434.316 676.264ZM432.805 665.938C433.362 663.524 434.253 662.137 435.307 661.478L434.247 659.782C432.539 660.849 431.465 662.852 430.856 665.488L432.805 665.938ZM435.341 661.456C436.416 660.723 438.05 660.49 440.446 661.043L440.895 659.095C438.24 658.482 435.946 658.623 434.214 659.804L435.341 661.456ZM440.446 661.043C441.464 661.278 442.511 661.978 443.567 663.312L445.135 662.072C443.902 660.513 442.496 659.464 440.895 659.095L440.446 661.043ZM443.593 663.345C444.697 664.626 445.135 665.637 445.165 666.401L447.163 666.322C447.107 664.899 446.335 663.463 445.108 662.039L443.593 663.345ZM445.169 666.464C445.615 670.817 447.321 674.509 450.29 677.494L451.708 676.083C449.078 673.44 447.561 670.181 447.159 666.26L445.169 666.464ZM450.304 677.508C453.286 680.384 457.307 682.375 462.3 683.527L462.75 681.578C458.015 680.485 454.352 678.633 451.693 676.069L450.304 677.508ZM462.3 683.527C468.027 684.849 473.12 684.919 477.541 683.667L476.996 681.743C472.985 682.879 468.248 682.848 462.75 681.578L462.3 683.527ZM477.531 683.67C482.089 682.43 485.003 679.897 485.907 675.979L483.958 675.53C483.265 678.534 481.069 680.635 477.006 681.74L477.531 683.67ZM485.907 675.979C486.792 672.144 485.179 668.343 481.545 664.648L480.119 666.051C483.507 669.495 484.628 672.63 483.958 675.53L485.907 675.979ZM481.545 664.648C477.964 661.008 474.087 658.143 469.912 656.067L469.022 657.858C472.978 659.826 476.678 662.553 480.119 666.051L481.545 664.648ZM469.94 656.082C464.2 652.997 459.247 649.756 455.074 646.364L453.813 647.915C458.101 651.402 463.164 654.71 468.994 657.843L469.94 656.082ZM455.075 646.364C450.775 642.866 447.896 639.153 446.363 635.236L444.501 635.966C446.191 640.281 449.319 644.26 453.812 647.915L455.075 646.364ZM446.363 635.236C444.818 631.289 444.492 627.472 445.349 623.759L443.401 623.309C442.444 627.453 442.823 631.681 444.501 635.966L446.363 635.236ZM445.349 623.759C446.137 620.347 448.126 617.111 451.404 614.056L450.04 612.592C446.54 615.855 444.297 619.425 443.401 623.309L445.349 623.759ZM451.412 614.048C454.718 610.896 458.193 608.931 461.837 608.093L461.389 606.144C457.333 607.076 453.548 609.248 450.032 612.6L451.412 614.048ZM461.847 608.091C463.809 607.617 467.113 607.367 471.833 607.375L471.836 605.375C467.1 605.367 463.59 605.613 461.378 606.147L461.847 608.091ZM471.847 607.374C476.686 607.31 480.03 607.519 481.96 607.965L482.41 606.016C480.224 605.512 476.668 605.31 471.821 605.375L471.847 607.374ZM481.96 607.965C484.596 608.573 487.45 609.568 490.526 610.957L491.35 609.134C488.18 607.703 485.199 606.66 482.41 606.016L481.96 607.965ZM490.526 610.957C493.584 612.338 495.928 613.833 497.599 615.422L498.977 613.973C497.093 612.181 494.537 610.574 491.35 609.134L490.526 610.957ZM497.611 615.434C501.164 618.702 503.649 621.444 505.116 623.668L506.785 622.567C505.187 620.142 502.563 617.271 498.965 613.962L497.611 615.434ZM505.116 623.668C506.492 625.755 506.892 628.038 506.303 630.588L508.252 631.038C508.959 627.975 508.474 625.128 506.785 622.567L505.116 623.668ZM506.303 630.588C505.98 631.986 505.159 633.119 503.747 634.001L504.807 635.697C506.619 634.565 507.797 633.007 508.252 631.038L506.303 630.588ZM503.716 634.021C502.548 634.813 500.595 635.042 497.594 634.349L497.144 636.298C500.316 637.03 502.969 636.944 504.838 635.677L503.716 634.021ZM497.594 634.349C497.15 634.247 496.664 633.935 496.162 633.238L494.54 634.409C495.232 635.367 496.092 636.055 497.144 636.298L497.594 634.349ZM496.162 633.238C495.606 632.468 494.923 631.318 494.111 629.766L492.339 630.692C493.167 632.278 493.902 633.524 494.54 634.409L496.162 633.238ZM494.136 629.817C493.062 627.439 491.831 625.629 490.398 624.508L489.166 626.084C490.237 626.921 491.301 628.4 492.313 630.641L494.136 629.817ZM490.304 624.443C488.958 623.62 486.976 622.612 484.382 621.419L483.547 623.236C486.12 624.419 488.016 625.389 489.261 626.15L490.304 624.443ZM484.389 621.422C481.853 620.235 479.512 619.387 477.368 618.892L476.919 620.841C478.891 621.296 481.097 622.089 483.541 623.233L484.389 621.422ZM477.368 618.892C474.986 618.342 472.415 618.272 469.664 618.66L469.944 620.64C472.49 620.281 474.811 620.354 476.919 620.841L477.368 618.892ZM469.664 618.66C466.878 619.053 464.365 619.984 462.139 621.461L463.244 623.127C465.206 621.826 467.434 620.995 469.944 620.64L469.664 618.66ZM462.137 621.461C459.953 622.915 458.549 624.909 457.971 627.412L459.92 627.861C460.379 625.874 461.471 624.307 463.245 623.127L462.137 621.461ZM457.971 627.412C457.461 629.622 458.036 631.752 459.541 633.735L461.134 632.526C459.92 630.925 459.567 629.392 459.92 627.861L457.971 627.412ZM459.579 633.781C461.129 635.589 463.066 637.214 465.375 638.662L466.438 636.968C464.272 635.609 462.496 634.111 461.097 632.479L459.579 633.781ZM465.336 638.636C467.922 640.434 470.773 642.139 473.886 643.754L474.807 641.979C471.761 640.399 468.985 638.737 466.477 636.994L465.336 638.636ZM473.848 643.733C477.833 646.028 481.03 648.035 483.447 649.758L484.608 648.13C482.118 646.355 478.861 644.312 474.845 642L473.848 643.733ZM483.481 649.781C485.994 651.422 488.354 653.317 490.561 655.467L491.957 654.035C489.659 651.796 487.199 649.82 484.574 648.107L483.481 649.781ZM490.569 655.475C494.471 659.193 497.037 662.653 498.353 665.85L500.202 665.089C498.741 661.536 495.962 657.851 491.949 654.027L490.569 655.475ZM498.359 665.864C499.655 668.88 499.808 672.809 498.669 677.743L500.618 678.193C501.811 673.024 501.721 668.622 500.196 665.075L498.359 665.864Z" fill="black" fill-opacity="0.31"/>
</g>
</g>
<defs>
<filter id="filter0_d" x="276.3" y="292.081" width="444.09" height="443.484" filterUnits="userSpaceOnUse" color-interpolation-filters="sRGB">
<feFlood flood-opacity="0" result="BackgroundImageFix"/>
<feColorMatrix in="SourceAlpha" type="matrix" values="0 0 0 0 0 0 0 0 0 0 0 0 0 0 0 0 0 0 127 0"/>
<feOffset dy="4"/>
<feGaussianBlur stdDeviation="2"/>
<feColorMatrix type="matrix" values="0 0 0 0 0 0 0 0 0 0 0 0 0 0 0 0 0 0 0.25 0"/>
<feBlend mode="normal" in2="BackgroundImageFix" result="effect1_dropShadow"/>
<feBlend mode="normal" in="SourceGraphic" in2="effect1_dropShadow" result="shape"/>
</filter>
<filter id="filter1_d" x="321.819" y="345.968" width="358.026" height="98.56" filterUnits="userSpaceOnUse" color-interpolation-filters="sRGB">
<feFlood flood-opacity="0" result="BackgroundImageFix"/>
<feColorMatrix in="SourceAlpha" type="matrix" values="0 0 0 0 0 0 0 0 0 0 0 0 0 0 0 0 0 0 127 0"/>
<feOffset dy="2"/>
<feGaussianBlur stdDeviation="2"/>
<feColorMatrix type="matrix" values="0 0 0 0 0 0 0 0 0 0 0 0 0 0 0 0 0 0 0.25 0"/>
<feBlend mode="color-burn" in2="BackgroundImageFix" result="effect1_dropShadow"/>
<feBlend mode="normal" in="SourceGraphic" in2="effect1_dropShadow" result="shape"/>
</filter>
<filter id="filter2_d" x="216" y="378.05" width="533.03" height="431.086" filterUnits="userSpaceOnUse" color-interpolation-filters="sRGB">
<feFlood flood-opacity="0" result="BackgroundImageFix"/>
<feColorMatrix in="SourceAlpha" type="matrix" values="0 0 0 0 0 0 0 0 0 0 0 0 0 0 0 0 0 0 127 0"/>
<feOffset dy="-2"/>
<feGaussianBlur stdDeviation="2"/>
<feColorMatrix type="matrix" values="0 0 0 0 0 0 0 0 0 0 0 0 0 0 0 0 0 0 0.25 0"/>
<feBlend mode="normal" in2="BackgroundImageFix" result="effect1_dropShadow"/>
<feBlend mode="normal" in="SourceGraphic" in2="effect1_dropShadow" result="shape"/>
</filter>
<filter id="filter3_i" x="430.443" y="605.363" width="78.1228" height="94.265" filterUnits="userSpaceOnUse" color-interpolation-filters="sRGB">
<feFlood flood-opacity="0" result="BackgroundImageFix"/>
<feBlend mode="normal" in="SourceGraphic" in2="BackgroundImageFix" result="shape"/>
<feColorMatrix in="SourceAlpha" type="matrix" values="0 0 0 0 0 0 0 0 0 0 0 0 0 0 0 0 0 0 127 0" result="hardAlpha"/>
<feOffset dy="2"/>
<feGaussianBlur stdDeviation="1.5"/>
<feComposite in2="hardAlpha" operator="arithmetic" k2="-1" k3="1"/>
<feColorMatrix type="matrix" values="0 0 0 0 0 0 0 0 0 0 0 0 0 0 0 0 0 0 0.8 0"/>
<feBlend mode="normal" in2="shape" result="effect1_innerShadow"/>
</filter>
<linearGradient id="paint0_linear" x1="979" y1="-5.15087e-05" x2="-3.4603e-05" y2="585" gradientUnits="userSpaceOnUse">
<stop stop-color="#2C5364"/>
<stop offset="1" stop-color="#96C3CE"/>
</linearGradient>
<radialGradient id="paint1_radial" cx="0" cy="0" r="1" gradientUnits="userSpaceOnUse" gradientTransform="translate(521.5 209) rotate(96.6309) scale(402.694 387.565)">
<stop stop-color="#264755"/>
<stop offset="1" stop-color="#182930"/>
</radialGradient>
<linearGradient id="paint2_linear" x1="507" y1="300.5" x2="410" y2="560" gradientUnits="userSpaceOnUse">
<stop stop-color="#96C3CE"/>
<stop offset="1" stop-color="#596E74"/>
</linearGradient>
<linearGradient id="paint3_linear" x1="511" y1="503" x2="437" y2="762.5" gradientUnits="userSpaceOnUse">
<stop stop-color="#34687F"/>
<stop offset="1" stop-color="#19333E"/>
</linearGradient>
<radialGradient id="paint4_angular" cx="0" cy="0" r="1" gradientUnits="userSpaceOnUse" gradientTransform="translate(467 636) rotate(90) scale(119 61.0886)">
<stop stop-color="#5EB0C5" stop-opacity="0.73"/>
<stop offset="1" stop-color="#00CDFF" stop-opacity="0.25"/>
</radialGradient>
<clipPath id="clip0">
<rect width="1034.95" height="831.61" fill="white"/>
</clipPath>
</defs>
</svg>
